<svg width="60" height="60" viewBox="0 0 60 60" fill="none" xmlns="http://www.w3.org/2000/svg">
<path fill-rule="evenodd" clip-rule="evenodd" d="M30 16.25C31.3807 16.25 32.5 17.3693 32.5 18.75V19.4457C34.506 20.0778 36.2073 21.4654 37.0213 23.4091C37.5548 24.6826 36.955 26.1475 35.6815 26.6808C34.408 27.2143 32.943 26.6145 32.4097 25.341C32.1747 24.7801 31.3407 24.0625 30 24.0625C28.2045 24.0625 27.5 25.2133 27.5 25.7812C27.5 26.3492 28.2045 27.5 30 27.5C33.7273 27.5 37.5 30.1267 37.5 34.2188C37.5 37.382 35.2452 39.6697 32.5 40.5452V41.25C32.5 42.6308 31.3807 43.75 30 43.75C28.6193 43.75 27.5 42.6308 27.5 41.25V40.5543C25.494 39.9223 23.7928 38.5345 22.9786 36.591C22.4452 35.3175 23.0451 33.8525 24.3186 33.3192C25.592 32.7857 27.057 33.3855 27.5903 34.659C27.8253 35.22 28.6592 35.9375 30 35.9375C31.7955 35.9375 32.5 34.7868 32.5 34.2188C32.5 33.6507 31.7955 32.5 30 32.5C26.2727 32.5 22.5 29.8733 22.5 25.7812C22.5 22.618 24.7547 20.3302 27.5 19.4548V18.75C27.5 17.3693 28.6193 16.25 30 16.25Z" fill="#3BB75E"/>
<path fill-rule="evenodd" clip-rule="evenodd" d="M30 8.01137C17.856 8.01137 8.01137 17.856 8.01137 30C8.01137 42.144 17.856 51.9888 30 51.9888C42.144 51.9888 51.9888 42.144 51.9888 30C51.9888 28.4907 51.837 27.0195 51.5487 25.5997C51.2802 24.2773 52.1347 22.9877 53.457 22.7193C54.7795 22.4509 56.069 23.3053 56.3375 24.6276C56.6903 26.3655 56.875 28.1625 56.875 30C56.875 44.8428 44.8428 56.875 30 56.875C15.1574 56.875 3.125 44.8428 3.125 30C3.125 15.1574 15.1574 3.125 30 3.125C31.8375 3.125 33.6345 3.30977 35.3725 3.66255C36.6948 3.93097 37.5493 5.22058 37.2808 6.54293C37.0122 7.8653 35.7228 8.71968 34.4003 8.45125C32.9805 8.16305 31.5093 8.01137 30 8.01137Z" fill="#3BB75E"/>
<path d="M44.8607 18.6476C43.8909 19.6175 42.3184 19.6175 41.3484 18.6476C40.3787 17.6777 40.3787 16.1052 41.3484 15.1353L45.8494 10.6342L45.5649 10.3497C45.0547 9.8399 44.5149 9.30047 44.1402 8.82362C43.8667 8.47597 42.8644 7.19347 43.4069 5.59702C43.9497 3.99927 45.5084 3.652 45.9302 3.55907C46.5109 3.43115 47.2584 3.36152 47.9657 3.29565L48.0872 3.28435C49.2009 3.18022 50.4952 3.08825 51.6497 3.13972C52.2259 3.16542 52.8579 3.22997 53.4602 3.3839C54.0184 3.5266 54.8362 3.8158 55.5082 4.4877C56.1802 5.15957 56.4692 5.97745 56.6119 6.53572C56.7659 7.13795 56.8304 7.76987 56.8562 8.34632C56.9077 9.50065 56.8157 10.795 56.7114 11.9088L56.7002 12.0302C56.6344 12.7374 56.5647 13.485 56.4367 14.0658C56.3439 14.4876 55.9967 16.0464 54.3989 16.5891C52.8024 17.1315 51.5199 16.1291 51.1722 15.8558C50.6954 15.481 50.1559 14.9412 49.6462 14.431L49.3617 14.1465L44.8607 18.6476Z" fill="#3BB75E"/>
</svg>
